<svg width="30" height="30" viewBox="0 0 30 30" fill="none" xmlns="http://www.w3.org/2000/svg">
<rect width="30" height="30" rx="3" fill="#292C6B"/>
<path d="M4.23158 7.79812L4 7.07981H7.70526C8.16842 9.31455 8.70877 11.3897 9.17193 13.385C9.63509 15.3803 10.1754 17.3756 10.7158 19.3709C11.1789 17.8545 11.6421 16.4977 12.0281 15.2207C12.4912 13.9437 12.8772 12.5869 13.3404 11.23C13.8807 9.6338 14.2667 8.27699 14.5754 7.07981L15.7333 7.15962L16.8912 7.07981C17.2 8.27699 17.586 9.6338 17.9719 11.0704C18.4351 12.507 18.8211 13.8639 19.2842 15.2207C19.7474 16.8169 20.2105 18.1737 20.5193 19.2911C20.6737 18.8122 21.0596 17.4554 21.6772 15.2207C22.2175 13.2254 22.6035 11.8685 22.8351 11.1502C23.1439 9.95305 23.5298 8.59624 23.8386 7L24.9193 7.07981L26 7C24.9965 9.87324 24.0702 12.7465 23.2211 15.5399C22.3719 18.3333 21.5228 21.1268 20.7509 23.9202C20.5193 23.9202 20.2877 23.8404 20.0561 23.8404H19.593C19.3614 23.8404 19.1298 23.8404 18.8982 23.9202C18.6667 23.9202 18.5123 24 18.4351 24C18.0491 22.5634 17.7404 21.2066 17.3544 20.0094C17.0456 18.8122 16.5825 17.4554 16.1193 15.939C15.9649 15.5399 15.5789 14.2629 14.807 11.9484C14.4211 13.2254 13.9579 14.5822 13.4947 15.8592C13.0316 17.1362 12.6456 18.493 12.1825 19.77C11.4877 22.0047 11.0246 23.3615 10.8702 23.9202C10.6386 23.9202 10.407 23.8404 10.1754 23.8404H9.71228C9.4807 23.8404 9.24912 23.8404 9.01754 23.9202C8.78597 23.9202 8.63158 24 8.55439 24C8.16842 22.4836 7.70526 20.7277 7.16491 18.5728C6.70175 16.8169 6.2386 15.061 5.69825 13.2254C5.23509 11.3897 4.77193 9.6338 4.23158 7.79812Z" fill="white"/>
</svg>
