<svg width="214" height="50" viewBox="0 0 214 50" fill="none" xmlns="http://www.w3.org/2000/svg">
<g clip-path="url(#clip0_55845_572)">
<path d="M4.9001 5.79999L4.6001 4.89999H9.4001C10.0001 7.69999 10.7001 10.3 11.3001 12.8C11.9001 15.3 12.6001 17.8 13.3001 20.3C13.9001 18.4 14.5001 16.7 15.0001 15.1C15.6001 13.5 16.1001 11.8 16.7001 10.1C17.4001 8.09999 17.9001 6.39999 18.3001 4.89999L19.8001 4.99999L21.3001 4.89999C21.7001 6.39999 22.2001 8.09999 22.7001 9.89999C23.3001 11.7 23.8001 13.4 24.4001 15.1C25.0001 17.1 25.6001 18.8 26.0001 20.2C26.2001 19.6 26.7001 17.9 27.5001 15.1C28.2001 12.6 28.7001 10.9 29.0001 9.99999C29.4001 8.49999 29.9001 6.79999 30.3001 4.79999L31.7001 4.89999L33.1001 4.79999C31.8001 8.39999 30.6001 12 29.5001 15.5C28.4001 19 27.3001 22.5 26.3001 26C26.0001 26 25.7001 25.9 25.4001 25.9H24.8001C24.5001 25.9 24.2001 25.9 23.9001 26C23.6001 26 23.4001 26.1 23.3001 26.1C22.8001 24.3 22.4001 22.6 21.9001 21.1C21.5001 19.6 20.9001 17.9 20.3001 16C20.1001 15.5 19.6001 13.9 18.6001 11C18.1001 12.6 17.5001 14.3 16.9001 15.9C16.3001 17.5 15.8001 19.2 15.2001 20.8C14.3001 23.6 13.7001 25.3 13.5001 26C13.2001 26 12.9001 25.9 12.6001 25.9H12.0001C11.7001 25.9 11.4001 25.9 11.1001 26C10.8001 26 10.6001 26.1 10.5001 26.1C10.0001 24.2 9.4001 22 8.7001 19.3C8.1001 17.1 7.5001 14.9 6.8001 12.6C6.2001 10.3 5.6001 8.09999 4.9001 5.79999Z" fill="white"/>
<path d="M57.6001 14.9C57.6001 18 56.6001 20.6 54.5001 22.7C52.3001 24.9 49.5001 26 46.0001 26C42.7001 26 40.1001 25 38.1001 23.1C36.1001 21.2 35.1001 18.5 35.1001 15C35.1001 11.8 36.1001 9.2 38.1001 7.2C40.2001 5 43.1001 4 46.6001 4C50.4001 4 53.3001 5.2 55.2001 7.7C56.9001 9.7 57.6001 12.1 57.6001 14.9ZM46.6001 5.8C44.5001 5.8 42.9001 6.6 41.8001 8.3C40.6001 10 40.1001 12.6 40.1001 16C40.1001 18.3 40.6001 20.1 41.5001 21.6C42.6001 23.3 44.2001 24.2 46.2001 24.2C48.3001 24.2 50.0001 23.2 51.2001 21.2C52.3001 19.4 52.8001 17.1 52.8001 14.3C52.8001 12 52.3001 10.1 51.4001 8.6C50.2001 6.8 48.7001 5.8 46.6001 5.8Z" fill="white"/>
<path d="M60.6001 26V4.90002H63.5001C64.8001 6.40002 66.2001 8.00003 67.7001 9.60003C68.5001 10.5 70.0001 12.1 72.0001 14.4C74.0001 16.7 75.4001 18.3 76.2001 19.2V4.90002L77.4001 5.00002L78.6001 4.90002V26H76.1001C74.4001 24.1 72.8001 22.1 71.1001 20.2C69.4001 18.2 67.7001 16.3 66.2001 14.6L63.0001 11.1V26.1L61.8001 25.9L60.6001 26Z" fill="white"/>
<path d="M82.5 5.09998H92.5C95.4 5.09998 97.7 6.09998 99.3 8.09998C100.7 9.89998 101.4 12.2 101.4 14.9C101.4 18.3 100.4 21 98.3 23.1C96.3 25 93.8 26 90.7 26H82.5V5.09998ZM86.9 6.89997V24.3H89.4C91.6 24.3 93.3 23.7 94.5 22.4C95.9 20.9 96.6 18.4 96.6 15C96.6 12.2 96 10.1 94.8 8.79998C93.7 7.49998 92 6.89997 89.9 6.89997H86.9Z" fill="white"/>
<path d="M104.8 5.09998H116C116 5.29998 115.9 5.59998 115.9 5.79998V6.39997C115.9 6.49997 115.9 6.79998 116 6.99998C116 7.29998 116.1 7.49998 116.1 7.69998C115.1 7.59998 114.1 7.39997 113 7.39997C111.9 7.29997 110.7 7.29998 109.3 7.29998V13.9H114.2C114.6 13.9 115.2 13.8 116 13.7C116 13.9 115.9 14.2 115.9 14.4V15C115.9 15.1 115.9 15.4 116 15.6C116 15.9 116.1 16.1 116.1 16.3C115.6 16.2 115 16.2 114.4 16.1C113.7 16 113.1 16 112.5 16H109.4V23.8C110.8 23.8 112 23.8 113.1 23.7C114.2 23.6 115.2 23.5 116.2 23.4C116.2 23.6 116.1 23.9 116.1 24.1V24.7C116.1 24.8 116.1 25.1 116.2 25.3C116.2 25.6 116.3 25.8 116.3 26H105.1V5.09998H104.8Z" fill="white"/>
<path d="M119.8 26V4.90002H126.1C127.4 4.90002 128.4 4.90002 129.1 5.00002C129.7 5.10002 130.3 5.20002 130.9 5.50002C132.6 6.40002 133.5 7.90002 133.5 9.90002C133.5 11.4 133.1 12.6 132.3 13.5C131.5 14.5 130.4 15.1 129 15.4C129.8 16.8 130.8 18.6 132.2 20.8C133.1 22.3 133.8 23.4 134.2 24L135.3 25.9C134.9 25.9 134.4 25.9 133.8 25.8C133.2 25.7 132.8 25.7 132.6 25.7C132.2 25.7 131.7 25.7 131.1 25.8C130.5 25.8 130.1 25.9 130 25.9L126.5 19.4L124.6 16H124.4V25.9H123.6C122.8 25.8 122.3 25.8 122.2 25.8C121.9 25.8 121.4 25.8 120.9 25.9C120.2 26 119.9 26 119.8 26ZM124.2 6.60003V14.8H125C127.6 14.8 128.8 13.3 128.8 10.4C128.8 9.90002 128.7 9.40002 128.7 8.90002C128.5 7.90002 128.1 7.30002 127.3 6.90002C126.8 6.70002 126.1 6.60003 125 6.60003H124.2Z" fill="white"/>
<path d="M148.1 8.5H147.7C147.4 7.7 147 7 146.4 6.5C145.8 6 145.1 5.8 144.3 5.8C143.2 5.8 142.4 6.1 141.9 6.6C141.4 7.1 141.1 7.9 141.1 8.8C141.1 9.9 141.9 10.9 143.4 11.8C146.2 13.4 147.6 14.2 147.7 14.3C149.2 15.6 150 17.2 150 19.2C150 21.2 149.3 22.8 147.8 24.1C146.4 25.4 144.5 26 142.2 26C141.3 26 140.5 25.9 139.7 25.7C138.9 25.5 138.1 25.2 137.5 24.7C137.7 23.8 137.9 23.2 138 22.6C138.1 22.1 138.2 21.5 138.3 20.8H138.9C139.1 21.9 139.6 22.7 140.3 23.3C141 23.9 141.9 24.2 142.9 24.2C143.9 24.2 144.7 23.9 145.4 23.4C146.1 22.8 146.4 22.1 146.4 21C146.4 19.7 145.6 18.6 144.1 17.7C142.7 16.9 141.3 16.1 139.9 15.4C138.4 14.2 137.6 12.5 137.6 10.4C137.6 8.5 138.2 7 139.3 5.9C140.5 4.6 142.2 4 144.4 4C145.4 4 146.3 4.2 147.2 4.5C148.1 4.8 148.7 5.1 149.1 5.5C148.9 6.1 148.7 6.6 148.6 7C148.3 7.7 148.2 8.2 148.1 8.5Z" fill="white"/>
<path d="M175.9 14.9C175.9 18 174.9 20.6 172.8 22.7C170.6 24.9 167.8 26 164.3 26C161 26 158.4 25 156.4 23.1C154.4 21.2 153.4 18.5 153.4 15C153.4 11.8 154.4 9.2 156.4 7.2C158.5 5 161.4 4 164.9 4C168.7 4 171.6 5.2 173.5 7.7C175.1 9.7 175.9 12.1 175.9 14.9ZM164.9 5.8C162.8 5.8 161.2 6.6 160.1 8.3C158.9 10 158.4 12.6 158.4 16C158.4 18.3 158.9 20.1 159.8 21.6C160.9 23.3 162.5 24.2 164.5 24.2C166.6 24.2 168.3 23.2 169.5 21.2C170.6 19.4 171.1 17.1 171.1 14.3C171.1 12 170.6 10.1 169.7 8.6C168.5 6.8 166.9 5.8 164.9 5.8Z" fill="white"/>
<path d="M184 15.9V26.1H183.2C182.4 26 181.9 26 181.8 26C181.5 26 181 26 180.5 26.1C180 26.2 179.7 26.2 179.6 26.2V4.90002H190.8C190.8 5.10002 190.7 5.40003 190.7 5.60003V6.20002C190.7 6.30002 190.7 6.60002 190.8 6.80002C190.8 7.10002 190.9 7.30002 190.9 7.50002C189.6 7.30002 188.5 7.20002 187.6 7.20002C186.7 7.10002 185.6 7.10003 184.1 7.10003V13.7H188.7C189 13.7 189.7 13.6 190.7 13.5C190.7 13.7 190.6 14 190.6 14.2V14.8C190.6 14.9 190.6 15.2 190.7 15.4C190.7 15.7 190.8 15.9 190.8 16.1C190.2 16 189.6 16 189 15.9C188.4 15.8 187.8 15.8 187.3 15.8H184V15.9Z" fill="white"/>
<path d="M204 7.09999V26H203.2C202.4 25.9 201.9 25.9 201.8 25.9C201.5 25.9 201 25.9 200.5 26C200 26.1 199.7 26.1 199.6 26.1V7.09999C198.6 7.09999 197.7 7.09999 196.9 7.19999C196.1 7.29999 195.2 7.39999 194.2 7.49999C194.2 7.19999 194.3 6.99999 194.3 6.69999V6.09999C194.3 5.79999 194.3 5.59999 194.2 5.29999C194.2 5.09999 194.1 4.89999 194.1 4.79999H209.2C209.2 5.09999 209.1 5.29999 209.1 5.59999V6.09999C209.1 6.39999 209.1 6.69999 209.2 6.89999C209.2 7.09999 209.3 7.29999 209.3 7.39999C207.9 7.19999 207 7.09999 206.7 7.09999C205.8 7.19999 204.9 7.09999 204 7.09999Z" fill="white"/>
<path d="M206 45.5H8C6.9 45.5 6 44.6 6 43.5V31.5C6 30.4 6.9 29.5 8 29.5H206C207.1 29.5 208 30.4 208 31.5V43.5C208 44.6 207.1 45.5 206 45.5Z" fill="white"/>
<path d="M18.0999 42V36.1H16.3999V34.3H21.9999V36.1H20.1999V42H18.0999Z" fill="#292C6B"/>
<path d="M28.3999 42V34.3H30.4999V37.3H33.2999V34.3H35.3999V42H33.2999V38.9H30.4999V42H28.3999Z" fill="#292C6B"/>
<path d="M42.3999 42V34.3H47.0999V36H44.4999V37.3H46.9999V39H44.4999V40.3H47.0999V42H42.3999Z" fill="#292C6B"/>
<path d="M68.0001 34.3L69.0001 38C69.0001 38.2 69.1001 38.3 69.1001 38.5C69.1001 38.7 69.2001 38.9 69.2001 39.1C69.3001 38.8 69.3001 38.6 69.3001 38.4C69.3001 38.2 69.4001 38.1 69.4001 37.9L70.3001 34.2H72.4001L70.2001 41.9H68.3001L67.3001 38.6C67.3001 38.5 67.2001 38.3 67.1001 37.9C67.1001 37.8 67.0001 37.6 67.0001 37.5C67.0001 37.6 67.0001 37.7 66.9001 37.8C66.8001 38.1 66.8001 38.4 66.7001 38.5L65.8001 41.8H63.8001L61.6001 34.1H63.7001L64.6001 37.8C64.6001 38 64.7001 38.2 64.7001 38.4C64.7001 38.6 64.8001 38.8 64.8001 39C64.8001 38.9 64.9001 38.7 64.9001 38.5C64.9001 38.3 65.0001 38.1 65.1001 37.8L66.1001 34.1H68.0001V34.3Z" fill="#292C6B"/>
<path d="M77.5 42L80.2 34.3H82.8L85.5 42H83.4L83 40.6H80L79.6 42H77.5ZM80.4 39.1H82.5L81.7 36.6C81.7 36.5 81.6 36.4 81.6 36.2C81.6 36 81.5 35.8 81.4 35.5C81.4 35.7 81.3 35.9 81.3 36C81.3 36.2 81.2 36.3 81.2 36.5L80.4 39.1Z" fill="#292C6B"/>
<path d="M92.4998 42V38.5L89.7998 34.3H92.1998L93.1998 36.3V36.4C93.2998 36.6 93.3998 36.8 93.3998 37C93.3998 36.8 93.4998 36.6 93.5998 36.4V36.3L94.5998 34.3H96.9998L94.5998 38.5V42H92.4998Z" fill="#292C6B"/>
<path d="M112.9 42V36.1H111.2V34.3H116.7V36.1H115V42H112.9Z" fill="#292C6B"/>
<path d="M130.9 38.2C130.9 38.8 130.8 39.3 130.6 39.8C130.4 40.3 130.1 40.7 129.7 41.1C129.3 41.5 128.9 41.8 128.3 42C127.8 42.2 127.3 42.3 126.7 42.3C126.1 42.3 125.6 42.2 125.1 42C124.6 41.8 124.2 41.5 123.8 41.1C123.4 40.7 123.1 40.3 122.9 39.8C122.7 39.3 122.6 38.8 122.6 38.2C122.6 37.6 122.7 37.1 122.9 36.6C123.1 36.1 123.4 35.7 123.8 35.3C124.2 34.9 124.6 34.6 125.1 34.4C125.6 34.2 126.1 34.1 126.7 34.1C127.2 34.1 127.8 34.2 128.3 34.4C128.8 34.6 129.3 34.9 129.6 35.3C130 35.7 130.3 36.1 130.5 36.6C130.8 37.1 130.9 37.6 130.9 38.2ZM126.8 40.4C127.4 40.4 127.9 40.2 128.2 39.8C128.6 39.4 128.8 38.8 128.8 38.2C128.8 37.6 128.6 37 128.2 36.6C127.8 36.2 127.3 36 126.8 36C126.2 36 125.7 36.2 125.4 36.6C125 37 124.8 37.6 124.8 38.2C124.8 38.9 125 39.4 125.4 39.8C125.7 40.2 126.2 40.4 126.8 40.4Z" fill="#292C6B"/>
<path d="M150 39.2V37.5H154.1V38C154.1 39.3 153.7 40.4 153 41.1C152.3 41.8 151.3 42.2 150 42.2C149.4 42.2 148.8 42.1 148.3 41.9C147.8 41.7 147.4 41.4 147 41C146.6 40.6 146.4 40.2 146.2 39.7C146 39.2 145.9 38.7 145.9 38.1C145.9 37.5 146 37 146.2 36.5C146.4 36 146.7 35.6 147.1 35.2C147.5 34.8 147.9 34.5 148.4 34.3C148.9 34.1 149.4 34 150 34C150.8 34 151.4 34.1 152 34.4C152.6 34.7 153.1 35.1 153.5 35.7L151.7 36.6C151.5 36.3 151.2 36.1 151 35.9C150.7 35.8 150.4 35.7 150.1 35.7C149.5 35.7 149 35.9 148.6 36.3C148.2 36.7 148.1 37.3 148.1 38C148.1 38.7 148.3 39.3 148.6 39.7C149 40.1 149.5 40.3 150.1 40.3C150.6 40.3 151.1 40.2 151.4 39.9C151.8 39.6 152 39.3 152 38.9H150V39.2Z" fill="#292C6B"/>
<path d="M160.8 42V34.3H163C163.9 34.3 164.5 34.3 164.8 34.4C165.1 34.5 165.4 34.6 165.7 34.8C166 35 166.2 35.3 166.3 35.6C166.4 35.9 166.5 36.3 166.5 36.7C166.5 37.3 166.3 37.8 166.1 38.2C165.8 38.6 165.4 38.8 164.8 38.9L166.9 42H164.5L162.7 39V42H160.8ZM162.8 37.9H163.2C163.7 37.9 164 37.8 164.2 37.7C164.4 37.5 164.5 37.3 164.5 37C164.5 36.6 164.4 36.3 164.2 36.2C164 36 163.7 36 163.2 36H162.8V37.9Z" fill="#292C6B"/>
<path d="M181.1 38.2C181.1 38.8 181 39.3 180.8 39.8C180.6 40.3 180.3 40.7 179.9 41.1C179.5 41.5 179.1 41.8 178.6 42C178.1 42.2 177.6 42.3 177 42.3C176.4 42.3 175.9 42.2 175.4 42C174.9 41.8 174.4 41.5 174.1 41.1C173.7 40.7 173.4 40.3 173.2 39.8C173 39.3 172.9 38.8 172.9 38.2C172.9 37.6 173 37.1 173.2 36.6C173.4 36.1 173.7 35.7 174.1 35.3C174.5 34.9 174.9 34.6 175.4 34.4C175.9 34.2 176.4 34.1 177 34.1C177.5 34.1 178.1 34.2 178.6 34.4C179.1 34.6 179.6 34.9 179.9 35.3C180.3 35.7 180.6 36.1 180.8 36.6C181 37.1 181.1 37.6 181.1 38.2ZM177 40.4C177.6 40.4 178.1 40.2 178.4 39.8C178.8 39.4 179 38.8 179 38.2C179 37.6 178.8 37 178.4 36.6C178 36.2 177.5 36 177 36C176.4 36 175.9 36.2 175.6 36.6C175.2 37 175 37.6 175 38.2C175 38.9 175.2 39.4 175.6 39.8C175.9 40.2 176.4 40.4 177 40.4Z" fill="#292C6B"/>
<path d="M193 34.3L194 38C194 38.2 194.1 38.3 194.1 38.5C194.1 38.7 194.2 38.9 194.2 39.1C194.3 38.8 194.3 38.6 194.3 38.4C194.3 38.2 194.4 38.1 194.4 37.9L195.3 34.2H197.4L195.2 41.9H193.3L192.3 38.6C192.3 38.5 192.2 38.3 192.1 37.9C192.1 37.8 192 37.6 192 37.5C192 37.6 192 37.7 191.9 37.8C191.8 38.1 191.8 38.4 191.7 38.5L190.8 41.8H188.8L186.6 34.1H188.7L189.6 37.8C189.6 38 189.7 38.2 189.7 38.4C189.7 38.6 189.8 38.8 189.8 39C189.8 38.9 189.9 38.7 189.9 38.5C189.9 38.3 190 38.1 190.1 37.8L191.1 34.1H193V34.3Z" fill="#292C6B"/>
</g>
<defs>
<clipPath id="clip0_55845_572">
<rect width="214" height="50" fill="white"/>
</clipPath>
</defs>
</svg>
